<?xml version="1.0" standalone="no"?>
<!DOCTYPE svg PUBLIC "-//W3C//DTD SVG 20010904//EN"
 "http://www.w3.org/TR/2001/REC-SVG-20010904/DTD/svg10.dtd">
<svg version="1.0" xmlns="http://www.w3.org/2000/svg"
 width="512.000000pt" height="512.000000pt" viewBox="0 0 512.000000 512.000000"
 preserveAspectRatio="xMidYMid meet">

<g transform="translate(0.000000,512.000000) scale(0.100000,-0.100000)"
fill="#e81c26" stroke="none">
<path d="M2288 4705 c-158 -22 -254 -44 -408 -95 -227 -75 -441 -186 -630
-329 -118 -89 -333 -306 -421 -426 -528 -713 -573 -1657 -117 -2415 94 -156
176 -260 322 -406 146 -146 250 -228 406 -322 345 -208 719 -312 1120 -312
470 0 914 147 1295 429 120 88 337 303 426 421 286 379 439 836 439 1310 0
463 -141 895 -417 1280 -88 123 -340 375 -463 463 -390 280 -822 419 -1293
416 -89 -1 -206 -7 -259 -14z m627 -423 l-7 -89 81 -33 c48 -20 76 -37 69 -41
-6 -4 -40 -13 -75 -19 -35 -7 -71 -19 -79 -27 -8 -8 -14 -36 -15 -66 -1 -29
-4 -65 -8 -80 -6 -27 -8 -25 -51 47 -24 42 -49 76 -55 76 -5 0 -45 -9 -87 -19
-43 -10 -78 -16 -78 -14 0 3 25 33 55 68 30 34 55 65 55 68 0 4 -20 39 -44 79
-25 40 -43 74 -42 75 1 2 38 -13 82 -32 l79 -35 60 65 c32 36 61 65 63 65 2 0
0 -40 -3 -88z m-910 -662 l270 -5 -213 -154 c-117 -85 -215 -157 -217 -161 -2
-3 34 -121 79 -261 46 -139 82 -255 80 -257 -1 -2 -35 21 -76 51 -40 29 -139
101 -219 159 l-147 106 -218 -159 c-120 -87 -219 -157 -221 -155 -2 1 34 118
80 259 l84 256 -218 158 -217 158 270 5 270 5 78 240 c43 132 82 249 85 260 5
14 34 -62 93 -240 l87 -260 270 -5z m1280 179 l59 -62 74 37 c41 20 77 35 79
32 3 -3 -13 -38 -35 -79 l-41 -74 60 -59 c32 -32 59 -61 59 -65 0 -3 -35 0
-77 7 -43 8 -83 12 -90 9 -7 -2 -29 -37 -49 -77 -37 -72 -37 -73 -45 -43 -5
16 -11 56 -15 87 -7 64 -2 61 -111 78 -40 7 -73 14 -73 17 0 2 35 20 78 40 42
19 78 36 79 37 1 1 -4 41 -11 89 -7 48 -10 87 -6 87 4 0 33 -28 65 -61z m66
-752 l26 -72 93 -3 92 -3 -71 -55 -70 -55 29 -81 c17 -45 29 -83 27 -84 -2 -2
-33 17 -70 41 -36 25 -71 45 -77 45 -6 0 -40 -23 -75 -51 -36 -28 -65 -45 -65
-37 0 7 9 42 20 78 11 36 20 70 20 75 0 6 -32 30 -70 55 -38 25 -70 48 -70 53
0 4 39 7 88 7 l87 0 24 85 c13 47 26 83 30 80 3 -4 18 -39 32 -78z m-442 -524
l-2 -88 77 -29 c42 -16 76 -32 76 -36 0 -4 -12 -11 -27 -14 -16 -4 -51 -13
-79 -21 l-52 -15 -7 -91 -7 -90 -45 68 c-25 37 -48 71 -52 75 -3 4 -43 -3 -88
-16 -46 -13 -83 -21 -83 -17 0 3 23 34 50 68 28 34 50 65 50 68 0 4 -20 38
-45 76 -25 38 -45 72 -45 74 0 2 30 -8 68 -22 37 -14 74 -28 83 -30 12 -3 34
16 70 61 29 36 54 66 56 66 3 0 3 -39 2 -87z"/>
</g>
</svg>
