<svg version="1.0" xmlns="http://www.w3.org/2000/svg"
 width="296.000000pt" height="295.000000pt" viewBox="0 0 296.000000 295.000000"
 preserveAspectRatio="xMidYMid meet">

<g transform="translate(0.000000,295.000000) scale(0.100000,-0.100000)"
fill="#000000" stroke="none">
<path d="M1276 2919 c-32 -5 -61 -11 -64 -14 -3 -2 -5 -251 -6 -552 l-1 -548
-571 -3 c-493 -2 -573 -4 -578 -17 -3 -8 -12 -80 -21 -161 -16 -140 -11 -287
11 -396 l6 -28 576 -2 577 -3 3 -577 2 -577 58 -8 c87 -12 399 -9 465 6 l57
12 0 575 0 574 559 0 c524 0 560 1 565 18 2 9 8 51 11 92 4 41 9 93 11 115 5
45 -11 243 -27 323 l-10 52 -555 0 -554 0 0 549 0 549 -27 6 c-131 27 -359 34
-487 15z" fill="#c41428"/>
<path d="M908 2816 c-100 -44 -175 -86 -273 -155 -89 -62 -267 -230 -259 -243
7 -11 605 -310 610 -305 2 2 3 169 2 370 l-3 366 -77 -33z" fill="#002278"/>
<path d="M2000 2475 c0 -201 3 -365 6 -365 20 0 584 295 584 305 0 19 -176
183 -266 246 -86 62 -176 113 -266 153 l-58 26 0 -365z" fill="#002278"/>
<path d="M2445 2195 c-115 -57 -239 -117 -275 -134 l-65 -30 212 -1 213 0 117
58 c65 31 119 58 121 59 13 6 -84 153 -101 152 -7 0 -106 -47 -222 -104z" fill="#c41428"/>
<path d="M157 2085 l-27 -55 143 1 142 0 -105 54 c-58 30 -110 54 -115 54 -6
1 -23 -24 -38 -54z" fill="#c41428"/>
<path d="M348 914 c-93 -46 -168 -87 -168 -90 0 -13 84 -153 89 -150 3 2 58
28 121 59 63 30 187 89 275 132 88 42 184 88 213 101 28 14 52 27 52 29 0 3
-93 5 -207 4 l-208 0 -167 -85z" fill="#c41428"/>
<path d="M2690 945 c58 -30 110 -53 117 -50 13 4 43 68 43 91 0 11 -26 14
-132 14 l-133 -1 105 -54z" fill="#c41428"/>
<path d="M905 885 c-33 -18 -176 -90 -317 -161 -142 -71 -258 -134 -258 -140
0 -18 187 -206 260 -261 122 -92 270 -176 383 -216 16 -6 17 17 17 403 0 322
-3 410 -12 409 -7 -1 -40 -16 -73 -34z" fill="#002278"/>
<path d="M2000 515 l0 -404 88 40 c154 71 297 172 423 298 92 93 131 140 124
151 -3 5 -137 75 -298 155 -160 81 -296 151 -301 156 -35 32 -36 17 -36 -396z" fill="#002278"/>
</g>
</svg>
