<svg width="24" height="24" xmlns="http://www.w3.org/2000/svg"><g fill="none" fill-rule="evenodd"><path d="M0 0h24v24H0z"/><path d="M22.176 12.24c0-.75-.067-1.473-.193-2.167H12v4.1h5.705a4.876 4.876 0 0 1-2.115 3.2v2.659h3.425c2.005-1.845 3.161-4.563 3.161-7.791z" fill="#4285F4"/><path d="M12 22.6c2.862 0 5.261-.95 7.015-2.568l-3.425-2.66c-.95.636-2.164 1.012-3.59 1.012-2.76 0-5.098-1.865-5.931-4.37H2.527v2.746A10.596 10.596 0 0 0 12 22.6z" fill="#34A853"/><path d="M6.069 14.014A6.372 6.372 0 0 1 5.736 12c0-.699.12-1.378.333-2.014V7.24H2.527A10.596 10.596 0 0 0 1.4 12c0 1.71.41 3.33 1.127 4.76l3.542-2.746z" fill="#FBBC05"/><path d="M12 5.616c1.556 0 2.954.535 4.052 1.585l3.04-3.04C17.257 2.45 14.857 1.4 12 1.4a10.596 10.596 0 0 0-9.473 5.84L6.07 9.986c.833-2.505 3.17-4.37 5.931-4.37z" fill="#EA4335"/><path d="M1.4 1.4h21.2v21.2H1.4z"/></g></svg>