<svg width="24" height="24" xmlns="http://www.w3.org/2000/svg" xmlns:xlink="http://www.w3.org/1999/xlink"><defs><linearGradient x1="50%" y1="-24.341%" x2="50%" y2="140.862%" id="c"><stop stop-color="#1E71FF" offset="0%"/><stop stop-color="#1A59D9" offset="19%"/><stop stop-color="#153BAA" offset="44%"/><stop stop-color="#122689" offset="67%"/><stop stop-color="#101974" offset="86%"/><stop stop-color="#0F146D" offset="99%"/></linearGradient><linearGradient x1="0%" y1="49.998%" x2="100%" y2="49.998%" id="d"><stop stop-color="#FF9200" offset="0%"/><stop stop-color="#F36D00" offset="29%"/><stop stop-color="#F4680B" offset="32%"/><stop stop-color="#F83C72" offset="57%"/><stop stop-color="#FC1CBE" offset="78%"/><stop stop-color="#FE08ED" offset="93%"/><stop stop-color="#F0F" offset="100%"/></linearGradient><rect id="a" x="0" y="0" width="24" height="24" rx="12"/></defs><g fill="none" fill-rule="evenodd"><mask id="b" fill="#fff"><use xlink:href="#a"/></mask><use fill="#D8D8D8" xlink:href="#a"/><g mask="url(#b)" fill-rule="nonzero"><path fill="url(#c)" d="M0 0h24v24H0z"/><path d="M12.163 20.897a.736.736 0 0 1-.357-.092 725.12 725.12 0 0 1-5.03-2.863l-.035-.02a367.982 367.982 0 0 0-3.57-2.03c-.373-.2-.38-.476-.38-.488V7.392c0-.364.3-.535.312-.542l.044-.025c.687-.406 2.957-1.743 3.318-1.939a.549.549 0 0 1 .528-.009c.006.004.739.46 2.027 1.191.8.493 1.323.807 1.807.987.39.145.851.221 1.336.221.485 0 .947-.076 1.337-.22.484-.18 1.008-.496 1.814-.993a61.784 61.784 0 0 0 2.018-1.185.549.549 0 0 1 .53.008c.41.222 3.23 1.886 3.35 1.957l.008.005a.63.63 0 0 1 .316.545v8.01c0 .012-.007.29-.381.489-.268.142-1.798 1.017-3.57 2.03l-.033.02a736.307 736.307 0 0 1-5.032 2.863.734.734 0 0 1-.357.092z" fill="url(#d)"/><path fill="#F624A0" opacity=".8" style="mix-blend-mode:multiply" d="M19.337.13 9.63 5.052v10.323l9.463-5.04z" transform="translate(2.442 6.982)"/><path fill="#F58000" opacity=".41" style="mix-blend-mode:multiply" d="m0 0 9.63 5.052v10.72L.065 10.419z" transform="translate(2.442 6.982)"/><path fill="#FFF" d="M6.633 9.44h.982v4.094h1.942v.94H6.633zm4.947.754c.604 0 1.108.31 1.343.646v-.562h.923v4.197h-.923v-.562c-.235.336-.739.646-1.343.646-1.15 0-2.023-.982-2.023-2.183 0-1.2.873-2.182 2.023-2.182zm.168.84c-.748 0-1.251.587-1.251 1.342 0 .756.503 1.344 1.25 1.344.748 0 1.251-.588 1.251-1.344 0-.755-.504-1.342-1.25-1.342zm2.487 2.711 2.2-2.628h-2.166v-.84h3.357v.74l-2.191 2.62h2.258v.838h-3.458z"/></g></g></svg>